#!OML:ASF E:\Steps\Project 1\Capture day 1\Session 2\Subject.ASF
:FULLY-SPECIFIED
:DEGREES
106
root -0.867648 18.0022 21.0933 -153.337 -4.11758 177.306
lowerback -25.0126 -2.07732 -6.9696
upperback 0.393749 -0.956336 0.124836
thorax 14.693 -1.06717 3.7748
lowerneck -1.32513 -1.85099 -0.810348
upperneck 24.0099 -5.8273 3.71301
head 7.73281 -3.39804 0.838762
rclavicle -8.69683e-015 -5.56597e-015
rhumerus -47.7536 -7.49296 -80.4369
rradius 55.3647
rwrist -26.2328
rhand 13.0925 -66.9925
rfingers 7.12502
rthumb 38.0532 452.777
lclavicle -8.69683e-015 -5.56597e-015
lhumerus -28.6122 -4.6582 86.5494
lradius 37.9528
lwrist 2.31798
lhand -23.473 -13.8285
lfingers 7.12502
lthumb 2.98634 16.1304
rfemur -24.698 2.7415 20.0166
rtibia 5.13364
rfoot -15.9096 0.0387274
rtoes -11.9905
lfemur -26.2494 -9.12561 -22.3439
ltibia 7.4621
lfoot -5.3623 -1.34911
ltoes -34.5781
107
root -0.868276 18.0025 21.0942 -153.344 -4.10302 177.285
lowerback -25.0071 -2.082 -6.98854
upperback 0.403408 -0.956218 0.12617
thorax 14.702 -1.06877 3.78732
lowerneck -1.70421 -1.837 -0.790748
upperneck 24.3429 -5.82322 3.59571
head 7.90863 -3.39835 0.784041
rclavicle -2.23633e-015 -1.41137e-014
rhumerus -47.617 -7.46269 -80.6318
rradius 55.2712
rwrist -25.9512
rhand 13.2866 -67.689
rfingers 7.12502
rthumb 38.2365 453.424
lclavicle -2.23633e-015 -1.41137e-014
lhumerus -28.5045 -4.57962 86.5788
lradius 37.8644
lwrist 1.89682
lhand -23.1815 -13.2507
lfingers 7.12502
lthumb 3.26783 16.704
rfemur -24.6939 2.71785 19.9824
rtibia 5.09933
rfoot -15.8465 0.0336842
rtoes -12.1093
lfemur -26.2489 -9.28736 -22.3253
ltibia 7.47361
lfoot -5.37437 -1.16955
ltoes -34.2647
108
root -0.868919 18.0013 21.0957 -153.278 -4.04047 177.264
lowerback -25.0806 -2.06507 -7.0115
upperback 0.380228 -0.921881 0.0936256
thorax 14.711 -1.05508 3.77471
lowerneck -1.58438 -1.85463 -0.694802
upperneck 24.137 -5.80016 3.53347
head 7.81293 -3.38046 0.75516
rclavicle -1.29459e-014 -9.93923e-015
rhumerus -47.4549 -7.44357 -80.8489
rradius 55.1355
rwrist -25.4543
rhand 13.1973 -62.4571
rfingers 7.12502
rthumb 38.1522 631.785
lclavicle -1.29459e-014 -9.93923e-015
lhumerus -28.4881 -4.70638 86.6311
lradius 37.8453
lwrist 1.94032
lhand -23.2264 -12.2151
lfingers 7.12502
lthumb 3.22448 17.7402
rfemur -24.8837 2.40428 20.0369
rtibia 5.27708
rfoot -15.8575 0.365401
rtoes -11.9755
lfemur -26.3473 -9.24564 -22.3683
ltibia 7.49714
lfoot -5.34157 -1.19429
ltoes -33.6365
109
root -0.870992 18.0018 21.0968 -153.278 -4.0246 177.249
lowerback -25.042 -2.05041 -7.00493
upperback 0.336291 -0.909232 0.0606447
thorax 14.6337 -1.04549 3.73748
lowerneck -1.17625 -1.87687 -0.619368
upperneck 23.6 -5.74551 3.54463
head 7.55727 -3.34375 0.767573
rclavicle 5.889e-015 -2.52457e-014
rhumerus -47.4347 -7.37388 -81.1303
rradius 55.1332
rwrist -25.1393
rhand 12.8183 -64.5223
rfingers 7.12502
rthumb 37.7943 810.377
lclavicle 5.889e-015 -2.52457e-014
lhumerus -28.6021 -4.94655 86.7297
lradius 37.7995
lwrist 2.58163
lhand -23.5923 -12.2306
lfingers 7.12502
lthumb 2.87111 17.7298
rfemur -24.9126 2.60053 19.9721
rtibia 5.3157
rfoot -15.8573 0.112991
rtoes -12.384
lfemur -26.3611 -9.15431 -22.427
ltibia 7.49101
lfoot -5.33361 -1.25578
ltoes -34.5662
110
root -0.869148 18.0017 21.0928 -153.395 -4.05934 177.222
lowerback -24.9599 -2.1085 -7.08492
upperback 0.373107 -0.966852 0.0924204
thorax 14.6414 -1.0779 3.79968
lowerneck -0.931826 -1.90859 -0.723217
upperneck 23.1227 -5.70202 3.61772
head 7.35843 -3.31631 0.825003
rclavicle -1.20762e-014 -6.75868e-015
rhumerus -47.3412 -7.09741 -81.476
rradius 55.099
rwrist -25.2778
rhand 12.5365 -62.9556
rfingers 7.12502
rthumb 37.5279 631.118
lclavicle -1.20762e-014 -6.75868e-015
lhumerus -28.5909 -4.85694 86.7307
lradius 37.7037
lwrist 2.69935
lhand -23.3477 -12.8639
lfingers 7.12502
lthumb 3.10731 17.0932
rfemur -24.611 3.00653 19.8547
rtibia 5.05726
rfoot -15.7992 -0.336917
rtoes -12.6412
lfemur -26.1727 -9.12692 -22.4747
ltibia 7.43198
lfoot -5.32859 -1.32649
ltoes -34.8422
111
root -0.863887 18.001 21.0844 -153.584 -4.14106 177.148
lowerback -24.8966 -2.1826 -7.24173
upperback 0.48005 -1.0105 0.106644
thorax 14.7443 -1.11166 3.89051
lowerneck -1.02342 -1.83451 -0.76271
upperneck 23.0061 -5.53956 3.58607
head 7.33132 -3.23185 0.832954
rclavicle 2.48481e-017 1.55052e-014
rhumerus -47.1669 -6.89352 -81.8456
rradius 54.9787
rwrist -25.8575
rhand 12.4132 -68.1165
rfingers 7.12502
rthumb 37.4114 454.074
lclavicle 2.48481e-017 1.55052e-014
lhumerus -28.4632 -4.69973 86.6505
lradius 37.5715
lwrist 2.16463
lhand -22.7968 -12.69
lfingers 7.12502
lthumb 3.63928 17.2587
rfemur -24.2521 3.08536 19.7913
rtibia 4.93027
rfoot -15.8762 -0.475052
rtoes -12.4845
lfemur -25.8655 -9.15728 -22.5535
ltibia 7.3634
lfoot -5.32969 -1.44467
ltoes -34.5726
112
root -0.861002 18.0012 21.0803 -153.674 -4.16356 177.115
lowerback -24.8394 -2.18528 -7.32201
upperback 0.496902 -0.990128 0.0878187
thorax 14.7311 -1.10698 3.92276
lowerneck -1.31712 -1.91838 -0.857432
upperneck 23.3374 -5.74063 3.73007
head 7.50532 -3.32581 0.870488
rclavicle -5.59082e-015 -2.62396e-014
rhumerus -47.1742 -6.87979 -82.0596
rradius 54.9858
rwrist -26.0993
rhand 11.5497 -64.9151
rfingers 7.12502
rthumb 36.5946 451.083
lclavicle -5.59082e-015 -2.62396e-014
lhumerus -28.4585 -4.74454 86.6655
lradius 37.3463
lwrist 2.02724
lhand -22.9265 -12.4808
lfingers 7.12502
lthumb 3.51407 17.4699
rfemur -24.1792 3.01916 19.7978
rtibia 5.05301
rfoot -16.0002 -0.450255
rtoes -12.7011
lfemur -25.7244 -9.1702 -22.5835
ltibia 7.3294
lfoot -5.3195 -1.49049
ltoes -34.7968
